# xmcd CD database file
#
# Track frame offsets:
#	150
#	15563
#	31694
#	50490
#	75712
#	96766
#	110069
#	126651
#	151552
#	171857
#
# Disc length: 2570 seconds
#
# Revision: 0
# Processed by: cddbd v1.5.2PL0 Copyright (c) Steve Scherf et al.
# Submitted via: CDex 1.51
#
DISCID=740a080a
DTITLE=Faitelson, Dalia - Pilpel
DYEAR=2007
DGENRE=Jazz
TTITLE0=Zuzi Zuzi
TTITLE1=Im siba o bli siba
TTITLE2=Oy ko cham
TTITLE3=Yona avuda
TTITLE4=Ga-a-gum
TTITLE5=Pilpel
TTITLE6=Hizdamnut nosefet
TTITLE7=Erev shel shoshanim
TTITLE8=Enosh
TTITLE9=Neshikat gamal
EXTD=YEAR: 2007
EXTT0=
EXTT1=
EXTT2=
EXTT3=
EXTT4=
EXTT5=
EXTT6=
EXTT7=
EXTT8=
EXTT9=
PLAYORDER=
